<?xml version="1.0" encoding="utf-8"?>
<!-- Generator: Adobe Illustrator 16.0.0, SVG Export Plug-In . SVG Version: 6.00 Build 0)  -->
<!DOCTYPE svg PUBLIC "-//W3C//DTD SVG 1.1//EN" "http://www.w3.org/Graphics/SVG/1.1/DTD/svg11.dtd">
<svg version="1.1" id="Layer_1" xmlns="http://www.w3.org/2000/svg" xmlns:xlink="http://www.w3.org/1999/xlink" x="0px" y="0px"
	 width="569.999px" height="490px" viewBox="0 0 569.999 490" enable-background="new 0 0 569.999 490" xml:space="preserve">
<g>
	<g>
		<path fill="#FFFFFF" d="M261.899,192.967v230.634c-27.369,0-49.551-22.184-49.551-49.555V192.967
			c0-25.734-20.863-46.595-46.604-46.595h-59.345c-27.371,0-49.559-22.19-49.559-49.562h108.903
			C218.856,96.811,261.899,139.863,261.899,192.967 M392.059,59.123h122.703c27.365,0,49.555-22.188,49.555-49.554H392.059
			c-41.684,0-81.226,13.813-113.488,39.19c-31.266-24.527-70.645-39.19-113.467-39.19H7.864c0,27.365,22.191,49.554,49.555,49.554
			h107.678c74.284,0,134.498,60.215,134.498,134.498v229.979v4.999c0,27.372,22.189,49.554,49.561,49.554v-54.553V193.621v-0.654
			c0-25.734,20.869-46.595,46.595-46.595h74.372c27.371,0,49.56-22.19,49.56-49.562H395.75c-23.698,0-45.354,8.611-62.113,22.822
			c-5.485-12.472-12.296-24.223-20.288-35.064C336.116,68.059,363.401,59.123,392.059,59.123"/>
		<g opacity="0.3">
			<g>
				<defs>
					<rect id="SVGID_1_" x="278.577" y="19.004" width="90.113" height="65.551"/>
				</defs>
				<clipPath id="SVGID_2_">
					<use xlink:href="#SVGID_1_"  overflow="visible"/>
				</clipPath>
				<path clip-path="url(#SVGID_2_)" fill="#231F20" d="M313.348,84.568c16.488-11.934,35.321-19.906,55.342-23.39
					c-9.932-15.194-21.617-29.325-34.932-42.175c-0.068,0.025-0.135,0.04-0.203,0.067c-13.093,4.366-25.639,10.222-37.451,17.452
					c-0.694,0.417-1.375,0.868-2.062,1.307c-2.061,1.293-4.102,2.642-6.117,4.023c-0.972,0.674-1.949,1.36-2.912,2.055
					c-1.684,1.206-3.341,2.452-4.993,3.72c-0.484,0.378-0.963,0.755-1.448,1.132C291.717,59.069,303.436,71.104,313.348,84.568"/>
			</g>
		</g>
		<g opacity="0.3">
			<g>
				<defs>
					<rect id="SVGID_3_" x="333.596" y="97.007" width="69.803" height="95.752"/>
				</defs>
				<clipPath id="SVGID_4_">
					<use xlink:href="#SVGID_3_"  overflow="visible"/>
				</clipPath>
				<path clip-path="url(#SVGID_4_)" fill="#231F20" d="M402.901,143.817c-3.377-16.219-8.391-31.866-14.857-46.811
					c-20.701,1.644-39.501,9.899-54.441,22.56c9.865,22.418,15.41,47.147,15.531,73.179c0.008-9.63,2.945-18.584,7.979-26.031
					c6.449-9.54,16.368-16.529,27.925-19.258c0.442-0.102,0.875-0.242,1.32-0.336c0.322-0.068,0.66-0.096,0.984-0.149
					c1.205-0.223,2.41-0.431,3.643-0.559c0.277-0.028,0.568-0.014,0.844-0.04c1.293-0.108,2.588-0.196,3.901-0.196h0.007h0.013
					h7.643L402.901,143.817z"/>
			</g>
		</g>
	</g>
</g>
</svg>
